<?xml version="1.0" standalone="no"?>
<!DOCTYPE svg PUBLIC "-//W3C//DTD SVG 20010904//EN"
 "http://www.w3.org/TR/2001/REC-SVG-20010904/DTD/svg10.dtd">
<svg version="1.0" xmlns="http://www.w3.org/2000/svg"
 width="1800.000000pt" height="726.000000pt" viewBox="0 0 1800.000000 726.000000"
 preserveAspectRatio="xMidYMid meet">
<g transform="translate(0.000000,726.000000) scale(0.100000,-0.100000)"
fill="#000000" stroke="none">
<path d="M13893 6189 c-58 -21 -64 -93 -12 -131 21 -16 29 -30 29 -52 0 -17 3
-41 6 -53 11 -41 24 -24 24 32 0 41 6 63 21 85 48 64 1 145 -68 119z"/>
<path d="M13685 6075 c-48 -47 -22 -115 44 -115 35 0 44 -6 90 -57 27 -32 57
-67 65 -78 8 -11 17 -17 21 -14 3 4 -21 46 -54 94 -50 75 -59 92 -54 120 11
66 -64 99 -112 50z"/>
<path d="M14036 6013 c-4 -9 -2 -21 4 -27 7 -7 10 -2 10 17 0 31 -5 34 -14 10z"/>
<path d="M14013 5885 c0 -27 2 -38 4 -22 2 15 2 37 0 50 -2 12 -4 0 -4 -28z"/>
<path d="M13576 5889 c-45 -35 -30 -100 28 -115 25 -6 76 11 76 26 0 5 23 10
51 10 36 0 49 4 47 13 -3 6 -18 14 -34 15 -17 2 -42 17 -60 38 -37 40 -69 44
-108 13z"/>
<path d="M13940 5888 c0 -30 15 -54 24 -40 8 14 -3 62 -15 62 -5 0 -9 -10 -9
-22z"/>
<path d="M13816 5802 c-3 -6 -1 -14 5 -17 15 -10 25 3 12 16 -7 7 -13 7 -17 1z"/>
<path d="M13980 5789 c0 -11 5 -17 10 -14 6 3 10 13 10 21 0 8 -4 14 -10 14
-5 0 -10 -9 -10 -21z"/>
<path d="M14035 5775 c-4 -11 -18 -29 -32 -39 -24 -18 -27 -18 -38 -2 -7 9
-19 14 -29 10 -18 -7 -22 -24 -6 -24 24 0 7 -43 -34 -84 -46 -48 -93 -136
-120 -227 -24 -81 -22 -282 4 -374 37 -137 51 -172 137 -345 l87 -175 0 -90
c1 -121 -8 -134 -105 -158 -80 -20 -214 -72 -240 -94 -8 -7 -18 -13 -22 -13
-18 0 -137 -90 -212 -162 -76 -71 -216 -241 -239 -288 -7 -16 -15 -28 -56 -95
-14 -22 -46 -83 -72 -135 -87 -178 -150 -305 -161 -325 -48 -83 -200 -277
-283 -362 -56 -57 -65 -73 -38 -73 17 0 181 54 229 75 17 7 55 23 85 35 284
113 623 309 790 456 129 114 155 134 158 126 2 -6 -7 -23 -19 -39 -48 -59
-287 -291 -349 -338 -36 -27 -71 -55 -79 -63 -8 -7 -26 -21 -40 -30 -14 -9
-51 -35 -81 -57 -84 -63 -241 -154 -385 -224 -123 -60 -148 -72 -227 -105 -18
-7 -50 -21 -71 -30 -21 -9 -44 -16 -52 -16 -8 0 -29 -6 -47 -14 -71 -30 -133
-51 -273 -91 -33 -9 -80 -23 -105 -31 -25 -8 -54 -14 -64 -14 -11 0 -42 -6
-70 -14 -28 -8 -87 -22 -131 -31 -44 -10 -100 -22 -125 -27 -25 -6 -70 -14
-100 -18 -30 -4 -80 -13 -110 -19 -51 -10 -96 -16 -397 -56 -61 -8 -145 -16
-185 -16 -40 -1 -86 -5 -103 -8 -68 -16 88 -25 420 -23 339 1 514 12 750 48
190 29 456 82 590 119 28 7 77 20 110 29 133 36 173 49 285 91 22 8 57 21 78
29 156 59 395 170 487 228 22 13 47 28 55 32 23 10 47 25 145 90 157 103 213
149 377 305 43 41 81 72 84 68 15 -15 -161 -223 -301 -355 -104 -99 -320 -264
-385 -295 -8 -4 -28 -16 -45 -27 -41 -26 -76 -45 -175 -95 -82 -41 -105 -51
-270 -117 -133 -53 -266 -98 -395 -133 -27 -7 -75 -21 -106 -29 -31 -9 -64
-16 -74 -16 -10 0 -41 -6 -69 -14 -125 -36 -483 -92 -671 -106 -60 -5 -158
-13 -216 -20 -136 -14 -1191 -8 -1409 9 -240 18 -433 32 -575 41 -71 4 -175
13 -230 19 -200 21 -322 33 -430 41 -60 4 -150 13 -200 19 -114 13 -327 36
-520 56 -82 8 -195 20 -250 26 -55 6 -152 15 -215 19 -63 4 -169 13 -235 19
-623 56 -1024 74 -1555 68 -523 -5 -823 -23 -1210 -72 -63 -8 -131 -17 -150
-19 -120 -12 -458 -76 -541 -102 -26 -8 -57 -14 -68 -14 -12 0 -31 -5 -42 -10
-10 -6 -38 -15 -61 -20 -24 -5 -65 -16 -93 -24 -27 -9 -72 -22 -100 -30 -89
-27 -214 -73 -227 -83 -7 -6 -24 -13 -37 -15 -14 -1 -26 -9 -29 -17 -5 -15 26
-13 108 7 192 47 638 113 900 132 63 5 162 15 220 21 147 18 1435 17 1610 0
69 -7 184 -16 255 -21 127 -8 217 -16 500 -46 258 -27 409 -44 515 -59 58 -9
119 -15 135 -15 17 0 77 -6 135 -15 58 -8 161 -22 230 -30 69 -9 172 -22 230
-30 58 -8 164 -21 235 -30 134 -16 271 -33 480 -59 115 -15 271 -32 495 -57
58 -6 134 -13 170 -15 36 -3 133 -11 215 -19 542 -52 1296 -52 1745 1 245 28
366 45 435 60 39 8 81 14 94 14 14 0 50 6 80 14 31 8 90 21 131 31 122 26 304
72 345 87 17 5 46 13 65 18 38 8 274 87 355 118 171 65 428 183 525 240 19 11
52 30 72 41 21 11 57 33 80 48 24 15 48 30 54 33 6 3 48 32 93 65 78 57 101
74 211 164 77 62 222 210 315 322 23 28 131 179 160 224 43 66 128 234 150
295 67 191 104 357 105 479 0 108 -29 239 -83 371 -32 77 -113 221 -144 255
-10 11 -31 36 -47 55 -16 19 -77 87 -137 150 -159 170 -159 170 -194 225 -60
93 -75 140 -75 229 0 111 12 128 83 120 54 -6 157 15 183 37 19 15 137 12 177
-4 57 -24 87 -29 87 -14 0 17 -94 117 -133 142 -15 10 -30 29 -34 44 -19 80
-89 168 -165 206 -42 21 -64 25 -139 25 -84 0 -90 2 -99 23 -9 21 -9 21 -15 2z
m233 -191 c15 -9 35 -27 45 -40 35 -46 -20 -72 -83 -39 -33 17 -74 70 -65 85
10 15 74 12 103 -6z"/>
<path d="M4659 4626 c-3 -3 -38 -10 -79 -15 -141 -20 -320 -85 -424 -156 -20
-14 -40 -25 -43 -25 -8 0 -78 -58 -136 -113 -231 -217 -344 -581 -278 -894 34
-165 69 -249 157 -383 81 -124 249 -267 389 -330 28 -12 58 -26 67 -31 21 -11
117 -41 208 -65 52 -14 106 -17 270 -17 212 1 245 6 400 57 96 32 110 38 237
108 72 39 191 147 257 232 59 76 156 256 156 290 0 8 6 30 14 48 20 45 40 188
40 278 0 104 -33 274 -71 360 -35 80 -48 107 -75 148 -15 24 -28 46 -28 50 0
14 -120 145 -182 199 -58 51 -217 153 -237 153 -5 0 -22 6 -38 14 -68 35 -179
67 -294 85 -64 11 -301 15 -310 7z m346 -426 c205 -73 342 -228 396 -450 45
-181 -1 -390 -117 -540 -52 -66 -75 -88 -134 -126 -130 -82 -252 -111 -425
-99 -328 22 -565 283 -565 622 0 177 62 326 187 450 79 79 210 145 323 164 82
14 269 2 335 -21z"/>
<path d="M6015 4592 c-46 -4 -58 -17 -43 -46 6 -11 15 -34 19 -51 4 -16 17
-55 29 -85 12 -30 25 -68 30 -85 9 -33 27 -86 43 -125 5 -14 13 -38 18 -55 8
-32 51 -156 73 -215 8 -19 35 -102 61 -185 26 -82 53 -166 60 -185 27 -75 37
-106 45 -135 5 -16 14 -46 21 -65 6 -19 17 -51 24 -70 7 -19 18 -51 24 -70 7
-19 16 -48 21 -65 5 -16 14 -46 21 -65 42 -121 57 -164 80 -240 12 -36 27 -80
35 -98 8 -18 14 -39 14 -48 0 -8 7 -28 15 -44 l16 -30 235 0 c179 0 235 3 238
13 2 6 9 28 15 47 7 19 16 49 21 65 5 17 18 55 30 85 12 30 25 69 30 85 5 17
18 55 30 85 28 73 79 217 90 255 4 17 18 55 30 85 12 30 25 69 30 85 5 17 14
46 21 65 6 19 17 51 24 70 7 19 18 51 24 70 7 19 17 49 21 65 19 66 67 186 74
186 11 0 54 -106 76 -186 5 -16 14 -46 21 -65 6 -19 17 -51 24 -70 7 -19 18
-51 24 -70 7 -19 16 -48 21 -65 5 -16 14 -46 21 -65 6 -19 17 -51 24 -70 7
-19 18 -51 24 -70 7 -19 16 -48 21 -65 5 -16 14 -46 21 -65 6 -19 17 -51 24
-70 7 -19 18 -51 24 -70 7 -19 16 -48 21 -65 11 -39 29 -91 46 -133 8 -18 14
-42 14 -53 0 -11 7 -33 15 -50 l16 -29 237 2 236 3 44 125 c23 69 53 157 67
195 37 109 61 177 84 245 7 19 16 49 21 65 5 17 18 55 30 85 12 30 25 69 30
85 11 39 29 91 46 133 8 18 14 41 14 50 0 10 4 22 9 27 5 6 14 26 19 45 14 47
32 99 47 135 7 17 22 59 34 95 11 36 36 110 56 165 20 55 40 114 45 130 5 17
32 95 60 175 67 190 64 178 51 194 -10 12 -51 14 -220 12 -114 -2 -215 -7
-225 -13 -9 -5 -21 -25 -26 -44 -13 -50 -37 -129 -51 -169 -17 -51 -34 -100
-48 -140 -7 -19 -16 -48 -21 -65 -5 -16 -14 -46 -21 -65 -14 -40 -31 -89 -48
-140 -11 -31 -25 -76 -51 -165 -11 -41 -30 -94 -46 -133 -8 -18 -14 -41 -14
-52 0 -11 -6 -34 -14 -52 -8 -18 -22 -60 -31 -93 -10 -33 -24 -75 -31 -93 -8
-18 -14 -41 -14 -52 0 -10 -11 -32 -24 -47 l-24 -28 -7 30 c-3 17 -12 46 -20
65 -7 19 -27 82 -45 140 -17 58 -38 120 -46 138 -8 18 -14 41 -14 50 0 10 -4
22 -8 27 -5 6 -26 64 -46 130 -21 66 -44 135 -52 153 -8 18 -14 39 -14 47 0 8
-6 29 -14 47 -8 18 -22 60 -31 93 -10 33 -23 76 -30 95 -7 19 -27 82 -45 140
-48 159 -64 190 -97 190 -16 1 -107 1 -203 0 -165 0 -176 -2 -192 -21 -10 -12
-18 -30 -18 -40 0 -10 -6 -33 -14 -51 -7 -18 -23 -62 -34 -98 -23 -72 -39
-118 -81 -240 -7 -19 -16 -48 -21 -65 -5 -16 -14 -46 -21 -65 -22 -63 -36
-104 -48 -140 -88 -263 -114 -343 -146 -445 -21 -66 -46 -129 -56 -139 -17
-19 -18 -19 -24 10 -4 16 -12 45 -20 64 -26 71 -71 210 -105 325 -4 17 -14 46
-21 65 -61 174 -94 276 -129 395 -8 29 -18 58 -45 135 -7 19 -27 82 -45 140
-18 58 -40 120 -49 139 l-18 34 -189 1 c-104 1 -207 0 -229 -2z"/>
<path d="M10027 4592 l-158 -3 -38 -82 c-21 -45 -55 -118 -76 -162 -20 -44
-45 -98 -55 -120 -10 -22 -31 -67 -45 -100 -54 -120 -130 -284 -184 -400 -78
-165 -192 -411 -253 -545 -22 -49 -71 -153 -167 -352 -34 -70 -61 -130 -61
-134 0 -4 -8 -16 -17 -26 -11 -12 -13 -22 -7 -28 7 -7 99 -9 245 -8 l234 3 27
55 c16 30 28 58 28 62 0 4 14 38 31 75 67 144 79 173 89 198 l10 25 469 0 470
0 20 -26 c12 -15 21 -31 21 -37 0 -6 9 -29 19 -51 23 -48 67 -145 109 -238
l31 -68 235 0 c233 0 236 0 236 21 0 11 -6 33 -14 47 -14 27 -52 108 -101 217
-44 99 -62 136 -98 215 -39 84 -87 188 -124 270 -14 30 -45 96 -68 145 -24 50
-55 117 -70 150 -15 33 -44 96 -65 140 -37 77 -71 152 -140 300 -35 77 -75
161 -143 305 -24 52 -48 105 -51 117 -11 35 -65 40 -339 35z m113 -539 c12
-27 25 -55 30 -64 4 -8 34 -76 65 -149 31 -73 61 -141 65 -149 8 -15 24 -50
82 -181 11 -25 24 -53 29 -63 5 -10 7 -22 4 -27 -4 -6 -127 -10 -311 -10 -263
0 -304 2 -304 15 0 13 12 41 80 190 10 22 30 66 44 98 14 31 38 83 52 115 14
31 35 77 46 102 11 25 27 57 34 72 8 14 14 31 14 38 0 13 32 59 42 60 3 0 16
-21 28 -47z"/>
<path d="M11156 4590 c-38 -3 -71 -10 -73 -16 -2 -6 14 -37 35 -70 22 -32 110
-167 197 -299 86 -132 166 -252 176 -267 10 -15 19 -30 19 -33 0 -3 9 -18 19
-33 10 -15 58 -88 106 -162 48 -74 100 -154 116 -178 16 -23 29 -45 29 -48 0
-4 13 -23 28 -43 53 -69 52 -63 55 -446 l2 -360 227 -3 227 -2 3 362 3 363 89
130 c253 368 400 584 411 603 6 9 59 91 119 182 207 313 199 301 187 313 -9 9
-76 11 -238 10 l-227 -3 -23 -27 c-12 -16 -22 -32 -23 -37 0 -4 -12 -25 -27
-45 -16 -20 -32 -44 -38 -53 -5 -9 -46 -70 -90 -135 -44 -65 -84 -126 -90
-135 -61 -101 -250 -368 -260 -368 -13 0 -206 280 -241 349 -4 7 -40 63 -80
123 -41 61 -74 112 -74 113 0 2 -20 33 -45 69 -25 37 -45 70 -45 74 0 4 -13
21 -28 39 l-27 31 -175 4 c-96 1 -206 1 -244 -2z"/>
</g>
</svg>
