<?xml version="1.0" standalone="no"?> <!DOCTYPE svg PUBLIC "-//W3C//DTD SVG 20010904//EN" "http://www.w3.org/TR/2001/REC-SVG-20010904/DTD/svg10.dtd"> <svg version="1.0" xmlns="http://www.w3.org/2000/svg" width="600.000000pt" height="242.000000pt" viewBox="0 0 600.000000 242.000000" preserveAspectRatio="xMidYMid meet"> <g transform="translate(0.000000,242.000000) scale(0.100000,-0.100000)" fill="#f9f9f9" stroke="none"> <path d="M4623 2054 c-3 -8 -1 -20 6 -27 6 -6 11 -20 12 -31 0 -14 4 -9 13 14 8 22 9 40 3 48 -13 16 -26 15 -34 -4z"/> <path d="M4567 2034 c-14 -14 -7 -44 10 -44 9 0 30 -15 46 -32 l29 -33 -25 35 c-13 20 -26 44 -28 54 -4 21 -21 31 -32 20z"/> <path d="M4671 1964 c0 -11 3 -14 6 -6 3 7 2 16 -1 19 -3 4 -6 -2 -5 -13z"/> <path d="M4523 1955 c-8 -23 1 -27 41 -19 l37 6 -27 14 c-34 18 -43 18 -51 -1z"/> <path d="M4650 1960 c0 -7 3 -10 7 -7 3 4 3 10 0 14 -4 3 -7 0 -7 -7z"/> <path d="M4615 1930 c3 -5 8 -10 11 -10 3 0 2 5 -1 10 -3 6 -8 10 -11 10 -3 0 -2 -4 1 -10z"/> <path d="M4674 1919 c-2 -5 -12 -5 -21 -2 -11 4 -14 3 -9 -6 5 -7 0 -21 -12 -34 -55 -61 -54 -175 2 -293 40 -84 47 -141 19 -151 -143 -48 -220 -122 -307 -292 -31 -61 -79 -138 -107 -171 -27 -33 -48 -60 -46 -60 15 0 128 45 185 73 92 46 144 80 193 124 22 20 42 33 45 31 3 -3 -31 -39 -75 -80 -197 -182 -456 -280 -869 -328 -59 -7 -32 -8 118 -5 161 3 216 8 316 29 256 54 448 144 588 275 33 31 56 49 50 41 -130 -186 -340 -309 -629 -368 -297 -61 -587 -58 -1305 13 -190 19 -428 39 -530 46 -315 20 -686 1 -910 -47 -84 -18 -264 -73 -258 -79 2 -2 51 4 108 15 172 30 310 40 569 40 277 0 434 -12 891 -70 537 -67 608 -73 870 -74 271 0 382 12 595 65 433 108 719 345 776 643 20 109 -19 206 -137 337 -71 78 -91 119 -82 164 3 19 49 29 132 28 l50 0 -31 27 c-17 16 -34 37 -37 48 -4 10 -15 27 -26 37 -22 20 -107 37 -116 24z m95 -63 c21 -25 -9 -31 -32 -7 l-21 21 21 0 c11 0 26 -6 32 -14z"/> <path d="M1520 1540 c-71 -15 -166 -67 -204 -112 -61 -71 -80 -122 -80 -218 -1 -77 2 -92 32 -152 59 -120 157 -179 308 -186 108 -5 171 11 251 64 221 149 172 488 -85 584 -65 25 -159 33 -222 20z m180 -150 c114 -58 143 -209 62 -319 -76 -102 -260 -93 -337 17 -27 39 -30 52 -30 117 0 65 3 78 30 117 58 83 184 114 275 68z"/> <path d="M2008 1532 c-13 -3 1 -53 91 -325 l108 -322 79 -3 79 -3 74 211 c41 116 76 209 78 207 2 -3 34 -96 72 -208 l68 -204 80 -3 80 -3 111 322 c61 177 110 325 107 329 -2 4 -37 6 -77 5 l-73 -2 -67 -207 c-36 -114 -69 -215 -74 -224 -4 -11 -31 56 -79 203 l-73 220 -73 3 -74 3 -69 -213 c-39 -117 -72 -217 -75 -222 -2 -5 -37 92 -77 215 l-73 224 -63 0 c-35 0 -70 -1 -80 -3z"/> <path d="M3723 1533 c-13 -2 -23 -6 -23 -9 0 -2 24 -41 54 -87 29 -45 88 -135 130 -200 l76 -118 0 -119 0 -120 75 0 75 0 0 119 0 119 136 202 c143 211 149 228 80 215 -16 -3 -45 -5 -66 -5 -36 0 -38 -2 -123 -130 -48 -71 -91 -130 -95 -130 -4 0 -46 59 -92 130 l-84 130 -47 0 c-26 0 -53 2 -61 4 -7 2 -23 1 -35 -1z"/> <path d="M3276 1498 c-15 -37 -121 -264 -186 -403 -23 -49 -55 -118 -71 -152 l-28 -63 80 0 80 0 31 70 31 70 159 0 158 0 31 -70 32 -70 78 0 c44 0 79 3 79 6 0 3 -55 124 -121 268 -67 143 -133 287 -147 319 l-25 57 -84 0 -83 0 -14 -32z m153 -246 l50 -112 -104 0 c-58 0 -105 2 -105 5 0 2 11 29 25 60 14 30 36 80 50 111 14 31 28 55 30 52 2 -2 27 -54 54 -116z"/> </g> </svg>