<?xml version="1.0" standalone="no"?>
<!DOCTYPE svg PUBLIC "-//W3C//DTD SVG 20010904//EN"
 "http://www.w3.org/TR/2001/REC-SVG-20010904/DTD/svg10.dtd">
<svg version="1.0" xmlns="http://www.w3.org/2000/svg"
 width="1800.000000pt" height="777.000000pt" viewBox="0 0 1800.000000 777.000000"
 preserveAspectRatio="xMidYMid meet">
<g transform="translate(0.000000,777.000000) scale(0.100000,-0.100000)"
fill="#000000" stroke="none">
<path d="M14105 6655 c-40 -39 -29 -106 21 -125 20 -8 24 -16 24 -51 0 -22 7
-55 15 -72 8 -18 15 -47 17 -66 2 -19 9 -36 16 -39 17 -5 16 59 -3 84 -8 11
-14 41 -15 73 0 45 4 58 30 88 37 41 38 62 4 102 -33 39 -74 41 -109 6z"/>
<path d="M13903 6558 c-40 -19 -44 -87 -8 -123 17 -18 35 -25 64 -25 34 0 44
-5 71 -40 39 -50 106 -120 114 -120 11 0 6 29 -7 37 -7 4 -35 37 -62 73 -45
58 -50 70 -48 111 3 77 -56 120 -124 87z"/>
<path d="M14307 6513 c-4 -3 -7 -15 -7 -25 0 -26 24 -17 28 10 3 21 -8 29 -21
15z"/>
<path d="M14277 6433 c-4 -3 -7 -55 -7 -115 0 -64 -4 -108 -10 -108 -5 0 -12
-11 -16 -24 -3 -13 -17 -29 -31 -37 -22 -12 -26 -11 -34 4 -6 9 -14 17 -19 17
-16 0 -11 -27 5 -34 19 -7 20 -52 1 -59 -17 -7 -98 -113 -115 -152 -56 -129
-79 -293 -61 -443 18 -156 46 -234 168 -478 39 -77 80 -165 91 -195 28 -72 28
-165 1 -218 -23 -43 -44 -51 -139 -51 -63 0 -184 -22 -248 -45 -260 -92 -530
-326 -698 -603 -6 -9 -24 -37 -40 -62 -45 -69 -65 -108 -190 -355 -64 -126
-122 -239 -129 -250 -34 -59 -77 -120 -145 -210 -81 -108 -87 -115 -185 -220
-36 -38 -66 -74 -66 -79 0 -16 139 18 203 50 16 8 35 14 42 14 7 0 26 6 42 14
15 8 48 22 73 31 25 10 63 25 85 35 203 91 279 129 473 236 63 35 70 39 147
88 188 121 314 211 477 341 56 44 108 85 117 90 8 6 21 17 28 25 11 13 12 13
13 -2 0 -10 -4 -18 -10 -18 -5 0 -10 -5 -10 -11 0 -35 -226 -290 -365 -411
-44 -39 -91 -80 -105 -92 -79 -70 -342 -257 -415 -296 -11 -6 -33 -19 -50 -29
-102 -65 -396 -209 -495 -241 -14 -5 -50 -18 -80 -30 -179 -69 -564 -182 -715
-210 -22 -4 -60 -12 -85 -18 -85 -20 -185 -41 -280 -57 -52 -9 -120 -21 -150
-27 -30 -6 -86 -14 -125 -18 -38 -4 -113 -12 -165 -19 -213 -25 -400 -41 -486
-41 -101 0 -401 -18 -423 -26 -11 -3 -11 -8 -3 -16 7 -7 76 -14 169 -19 87 -4
262 -13 388 -19 387 -21 869 5 1165 61 30 6 87 14 125 19 39 4 95 13 125 20
30 6 89 18 130 26 41 9 98 22 126 30 28 8 59 14 69 14 10 0 43 7 74 16 31 8
80 22 109 30 122 33 169 47 200 60 18 8 39 14 47 14 8 0 29 6 47 14 18 8 51
21 73 29 53 20 192 76 230 93 75 33 366 177 417 206 88 51 202 121 208 127 6
8 41 29 60 38 8 4 50 33 93 65 43 32 81 58 85 58 4 1 19 11 33 23 14 12 59 49
100 82 41 33 125 109 187 170 63 60 118 112 123 113 15 6 10 -25 -6 -38 -8 -7
-15 -17 -15 -22 0 -5 -46 -70 -102 -146 -118 -158 -366 -413 -498 -513 -47
-35 -89 -67 -95 -71 -127 -102 -425 -270 -642 -365 -68 -29 -99 -42 -143 -58
-25 -9 -60 -23 -78 -31 -18 -8 -37 -14 -43 -14 -6 0 -25 -6 -42 -13 -29 -13
-54 -21 -202 -65 -27 -8 -68 -21 -90 -28 -23 -8 -49 -14 -58 -14 -10 0 -39 -6
-65 -14 -55 -16 -154 -38 -267 -59 -44 -9 -107 -21 -140 -27 -33 -6 -94 -15
-135 -20 -41 -5 -99 -14 -129 -19 -29 -6 -83 -11 -120 -12 -36 0 -88 -4 -116
-9 -93 -18 -660 -29 -985 -20 -295 8 -416 15 -700 41 -63 6 -171 14 -240 19
-69 5 -152 14 -185 20 -33 5 -80 10 -105 10 -43 0 -176 15 -400 45 -58 8 -125
17 -150 19 -58 4 -193 23 -301 41 -47 8 -101 15 -119 15 -18 0 -72 6 -119 14
-154 26 -295 46 -325 46 -15 0 -65 7 -110 15 -44 8 -135 21 -201 30 -66 9
-151 20 -190 26 -38 6 -110 15 -160 20 -49 5 -108 13 -130 19 -22 5 -60 10
-85 10 -25 0 -97 7 -160 15 -762 97 -1458 134 -2174 115 -226 -6 -481 -18
-566 -26 -85 -8 -177 -14 -205 -14 -62 1 -407 -40 -610 -72 -38 -6 -97 -14
-130 -18 -58 -6 -107 -15 -265 -46 -123 -25 -211 -44 -275 -60 -33 -9 -87 -22
-120 -30 -83 -21 -164 -43 -200 -56 -16 -5 -46 -13 -66 -17 -19 -4 -41 -11
-48 -16 -8 -4 -27 -11 -45 -16 -31 -8 -165 -55 -219 -77 -16 -7 -34 -12 -41
-12 -8 0 -19 -7 -26 -15 -7 -8 -22 -15 -34 -15 -11 0 -27 -4 -35 -9 -27 -17
24 -22 69 -6 23 8 52 15 64 15 11 0 53 6 91 14 39 8 106 22 150 30 44 8 107
20 140 26 33 6 78 13 100 16 22 2 81 11 130 19 136 22 245 37 290 41 22 2 96
11 165 19 449 53 877 75 1410 75 223 -1 477 -5 565 -10 88 -5 216 -12 285 -15
131 -6 396 -25 690 -51 169 -14 290 -28 525 -59 61 -8 164 -22 230 -30 66 -9
159 -22 206 -30 47 -8 101 -15 120 -15 19 0 51 -5 72 -11 20 -5 70 -14 110
-19 39 -5 97 -13 127 -19 30 -6 100 -18 155 -26 172 -28 277 -46 355 -60 105
-19 206 -36 270 -45 97 -13 203 -31 275 -46 39 -8 84 -14 100 -14 17 0 46 -5
65 -10 19 -6 69 -15 110 -20 41 -5 100 -13 130 -19 92 -17 201 -33 275 -41 39
-4 102 -13 140 -19 174 -27 364 -48 785 -88 261 -24 1167 -24 1340 0 63 9 135
17 160 17 55 0 378 47 495 72 28 6 73 14 100 19 104 16 444 101 535 134 19 7
62 20 95 30 57 16 76 23 175 60 22 8 58 22 80 30 83 31 126 48 155 61 104 45
139 61 215 96 47 22 103 49 125 61 22 12 65 34 95 50 30 16 69 37 85 47 17 10
48 28 70 40 22 12 59 35 83 51 24 16 46 29 49 29 3 0 22 14 43 30 21 16 41 30
44 30 12 0 249 182 322 247 144 127 264 252 354 368 30 39 57 72 60 75 9 9 52
71 118 170 63 94 202 364 202 392 0 8 7 23 15 34 8 10 15 27 15 36 0 10 6 32
14 50 35 84 76 315 76 433 0 115 -35 304 -75 400 -88 215 -164 324 -385 550
-260 265 -293 310 -327 450 -12 50 -12 71 -2 123 7 34 19 68 27 75 10 7 53 12
116 13 93 1 106 3 163 32 l62 32 78 -19 c43 -10 91 -24 106 -30 36 -14 57 -14
57 0 0 19 -93 121 -133 146 -23 15 -44 39 -54 61 -41 102 -66 143 -110 181
-76 67 -120 82 -250 83 -62 1 -116 -1 -119 -5 -13 -13 -24 -7 -24 12 0 11 6
21 13 24 9 3 12 36 12 120 1 110 -2 127 -18 110z m299 -461 c29 -22 57 -69 49
-82 -9 -15 -82 -12 -113 4 -29 15 -82 70 -82 85 0 26 109 20 146 -7z"/>
<path d="M13793 6350 c-45 -19 -56 -80 -22 -124 28 -36 69 -34 112 4 19 17 40
30 46 30 17 0 14 6 -26 49 -41 43 -75 56 -110 41z"/>
<path d="M14215 6277 c-4 -10 -3 -28 3 -40 9 -20 10 -21 17 -4 4 10 3 28 -3
40 -9 20 -10 21 -17 4z"/>
<path d="M13976 6252 c-7 -11 16 -22 46 -22 11 0 18 5 16 13 -5 15 -54 22 -62
9z"/>
<path d="M14062 6219 c2 -7 10 -15 17 -17 8 -3 12 1 9 9 -2 7 -10 15 -17 17
-8 3 -12 -1 -9 -9z"/>
<path d="M3070 5223 c-127 -29 -246 -67 -334 -107 -28 -13 -58 -26 -66 -30 -8
-3 -28 -15 -45 -26 -16 -11 -39 -24 -50 -30 -21 -11 -48 -28 -111 -72 -63 -44
-235 -227 -286 -303 -106 -160 -184 -347 -208 -500 -5 -33 -14 -84 -20 -114
-27 -143 8 -453 66 -589 8 -18 14 -37 14 -43 0 -10 90 -198 113 -234 71 -114
208 -260 327 -349 106 -79 105 -78 210 -131 96 -47 125 -60 180 -78 359 -119
731 -100 1054 53 307 145 565 417 680 718 61 160 69 193 96 425 12 95 8 155
-19 347 -34 236 -181 510 -372 697 -199 194 -402 297 -713 364 -112 24 -413
25 -516 2z m508 -63 c304 -96 519 -344 625 -720 75 -265 88 -643 31 -945 -19
-102 -68 -273 -93 -323 -110 -223 -184 -321 -321 -421 -176 -130 -356 -175
-597 -152 -105 11 -175 30 -283 80 -222 102 -412 351 -496 651 -51 180 -63
261 -70 495 -11 311 28 563 121 780 115 271 281 445 500 527 136 51 186 58
380 52 103 -3 157 -9 203 -24z"/>
<path d="M9472 5180 c-9 -10 -34 -61 -55 -112 -21 -51 -44 -106 -52 -123 -7
-16 -23 -55 -34 -85 -22 -54 -30 -74 -56 -135 -7 -16 -27 -66 -45 -110 -17
-44 -38 -93 -45 -110 -7 -16 -41 -97 -75 -180 -34 -82 -67 -163 -75 -180 -7
-16 -41 -97 -75 -180 -34 -82 -68 -163 -75 -180 -17 -38 -128 -306 -167 -405
-29 -71 -39 -95 -72 -172 -8 -18 -37 -89 -66 -158 -105 -250 -213 -368 -365
-401 -71 -15 -98 -26 -90 -40 4 -5 153 -9 376 -9 347 0 370 1 367 18 -2 11
-14 18 -33 19 -58 5 -140 25 -168 42 -52 29 -70 73 -70 165 0 52 7 97 18 126
24 64 74 190 90 225 7 17 27 66 45 110 18 44 39 95 46 113 8 17 20 47 27 65 7
17 22 50 33 72 l19 40 458 3 c464 2 497 0 497 -34 0 -9 6 -28 13 -42 18 -35
40 -86 62 -142 20 -53 36 -92 57 -140 21 -47 77 -187 93 -230 7 -19 20 -53 28
-75 57 -146 17 -253 -105 -282 -29 -7 -69 -12 -88 -13 -41 0 -65 -13 -56 -29
5 -8 156 -11 527 -11 490 0 520 1 517 18 -2 11 -14 18 -33 20 -164 14 -257 89
-354 286 -33 68 -61 129 -61 134 0 6 -6 23 -14 39 -19 38 -36 78 -91 213 -26
63 -53 130 -61 147 -31 74 -42 100 -59 143 -10 25 -24 60 -32 77 -29 69 -42
101 -73 178 -18 44 -38 94 -45 110 -8 17 -41 98 -75 180 -34 83 -68 165 -76
183 -8 17 -21 48 -29 67 -8 19 -21 50 -29 68 -7 17 -28 68 -46 112 -38 94 -52
127 -73 175 -8 19 -36 87 -62 150 -45 110 -55 132 -91 218 -27 63 -30 66 -58
73 -20 6 -31 3 -44 -11z m-109 -533 c27 -60 49 -110 57 -128 5 -8 34 -76 65
-149 31 -73 60 -141 65 -149 4 -9 14 -33 24 -53 9 -21 23 -53 30 -70 52 -117
66 -149 86 -198 28 -71 46 -112 66 -154 8 -18 14 -44 12 -57 l-3 -24 -427 -3
c-424 -2 -428 -2 -428 18 0 11 4 28 9 38 5 9 30 69 56 132 46 113 55 133 90
215 24 55 36 83 90 215 25 63 52 129 60 145 7 17 30 71 50 120 46 110 63 145
73 145 4 0 15 -20 25 -43z"/>
<path d="M4707 5153 c-19 -18 -5 -33 31 -33 64 0 131 -31 176 -81 37 -41 54
-75 103 -204 15 -42 29 -74 57 -138 9 -21 16 -44 16 -52 0 -7 6 -26 14 -42 8
-15 21 -46 29 -68 8 -22 25 -65 38 -95 26 -65 57 -145 69 -180 5 -14 18 -50
30 -80 12 -30 25 -66 30 -80 5 -14 18 -50 30 -80 12 -30 32 -86 45 -125 13
-38 34 -95 45 -125 12 -30 25 -66 30 -80 5 -14 18 -50 30 -80 12 -30 25 -66
30 -80 5 -14 18 -50 30 -80 12 -30 25 -66 30 -80 5 -14 18 -50 30 -80 12 -30
25 -66 30 -80 5 -14 18 -50 30 -80 12 -30 24 -66 27 -80 3 -14 10 -30 15 -37
6 -7 14 -27 18 -45 5 -18 18 -58 30 -88 12 -30 25 -66 30 -80 5 -14 18 -50 30
-80 12 -30 25 -70 30 -88 19 -76 73 -86 93 -17 3 11 15 45 27 75 12 30 25 66
30 80 5 14 18 50 30 80 12 30 26 69 30 85 12 41 33 95 48 122 7 12 12 29 12
37 0 8 6 30 14 48 8 18 21 52 30 76 27 70 45 120 60 160 8 20 21 56 30 80 9
23 23 60 31 82 8 22 22 58 30 80 8 22 22 58 30 80 8 22 22 59 31 83 9 23 22
58 29 77 7 19 27 71 45 115 18 44 38 96 45 115 57 150 73 179 93 166 6 -3 12
-18 15 -33 2 -16 15 -53 27 -83 12 -30 25 -66 30 -80 5 -14 18 -50 30 -80 12
-30 25 -66 30 -80 5 -14 18 -50 30 -80 12 -30 25 -66 30 -80 5 -14 18 -50 30
-80 12 -30 25 -66 30 -80 5 -14 18 -50 30 -80 12 -30 25 -66 30 -80 5 -14 18
-50 30 -80 12 -30 26 -71 32 -90 5 -19 14 -39 18 -45 4 -5 10 -21 13 -35 3
-14 15 -50 26 -80 45 -113 53 -136 58 -160 3 -14 10 -30 15 -37 6 -7 14 -27
18 -45 5 -18 18 -58 30 -88 12 -30 25 -68 30 -85 29 -111 65 -134 100 -65 11
21 20 47 20 58 0 10 5 23 11 29 6 6 14 26 19 44 5 19 18 59 30 89 12 30 25 66
30 80 5 14 18 50 30 80 37 98 51 134 60 165 6 17 14 39 19 50 22 51 34 82 41
110 5 17 18 55 30 85 45 118 52 136 57 160 3 14 9 30 14 35 8 10 21 47 64 170
13 39 33 95 45 125 12 30 25 66 30 80 5 14 18 50 30 80 11 30 32 87 45 125 13
39 33 95 45 125 31 82 50 132 60 160 5 14 18 50 30 80 12 30 25 66 29 80 11
35 59 159 75 195 8 17 17 37 20 45 4 8 12 24 19 35 90 146 159 200 282 223 25
5 40 13 40 22 0 13 -48 15 -334 18 -236 2 -338 -1 -347 -9 -22 -18 -6 -29 44
-29 71 -1 141 -30 175 -72 50 -62 49 -188 -3 -318 -12 -30 -25 -66 -30 -80 -5
-14 -18 -50 -30 -80 -42 -111 -52 -136 -60 -165 -4 -16 -18 -55 -30 -85 -12
-30 -25 -66 -30 -80 -5 -14 -18 -50 -30 -80 -12 -30 -24 -64 -27 -75 -2 -11
-9 -29 -14 -40 -14 -32 -40 -107 -49 -143 -4 -18 -12 -38 -18 -45 -5 -7 -12
-23 -15 -37 -3 -14 -15 -50 -26 -80 -40 -102 -52 -135 -61 -165 -4 -16 -18
-55 -30 -85 -12 -30 -25 -68 -30 -85 -5 -16 -18 -55 -30 -85 -11 -30 -28 -73
-36 -95 -9 -22 -18 -52 -21 -68 -3 -15 -9 -30 -14 -32 -11 -7 -39 37 -49 77
-5 18 -18 58 -30 88 -12 30 -25 66 -30 80 -5 14 -18 50 -30 80 -12 30 -24 66
-27 80 -3 14 -9 30 -14 35 -4 6 -19 44 -33 85 -26 78 -41 118 -76 210 -12 30
-25 69 -30 85 -7 27 -24 71 -50 130 -4 11 -11 29 -13 40 -3 11 -15 45 -27 75
-12 30 -25 66 -30 80 -5 14 -18 50 -30 80 -12 30 -25 66 -30 80 -5 14 -18 50
-30 80 -12 30 -25 66 -30 80 -5 14 -18 50 -30 80 -12 30 -24 64 -27 75 -3 11
-11 34 -18 50 -50 115 -56 181 -22 240 29 51 80 75 172 84 53 4 70 10 70 21 0
13 -59 15 -459 18 -451 2 -498 -1 -480 -29 3 -5 23 -9 44 -9 59 0 131 -28 171
-67 37 -35 86 -123 100 -178 4 -16 17 -55 29 -85 12 -30 25 -66 30 -80 5 -14
18 -50 30 -80 42 -111 52 -136 60 -165 4 -16 14 -44 21 -62 13 -33 13 -35 -36
-148 -12 -30 -30 -76 -60 -155 -41 -108 -48 -126 -57 -144 -6 -11 -14 -31 -18
-45 -5 -14 -18 -51 -30 -81 -12 -30 -25 -66 -30 -80 -5 -14 -18 -50 -30 -80
-12 -30 -25 -66 -30 -80 -5 -14 -18 -50 -30 -80 -42 -110 -52 -136 -60 -165
-5 -16 -16 -48 -24 -70 -8 -22 -23 -62 -34 -90 -22 -61 -47 -70 -61 -23 -5 18
-19 58 -31 88 -12 30 -25 66 -30 80 -5 14 -18 50 -30 80 -42 110 -52 136 -60
165 -9 30 -21 65 -61 165 -11 30 -23 66 -26 80 -3 14 -10 30 -15 37 -6 7 -14
27 -18 45 -5 18 -18 58 -30 88 -12 30 -25 66 -30 80 -5 14 -18 50 -30 80 -12
30 -25 66 -30 80 -5 14 -18 50 -30 80 -12 30 -25 66 -30 80 -5 14 -18 50 -30
80 -12 30 -25 66 -30 80 -5 14 -18 50 -30 80 -12 30 -25 66 -30 80 -5 14 -18
50 -30 80 -53 136 -55 228 -6 276 32 31 100 54 160 54 58 0 71 6 55 27 -9 10
-98 13 -464 13 -248 0 -455 -3 -458 -7z"/>
<path d="M10557 5153 c-20 -19 -5 -33 35 -33 114 0 239 -64 321 -166 40 -49
155 -231 180 -284 4 -8 21 -37 38 -65 16 -27 37 -63 45 -80 8 -16 28 -52 45
-80 16 -27 37 -63 45 -80 8 -16 24 -46 35 -65 12 -19 32 -55 46 -80 13 -25 32
-58 42 -75 10 -16 34 -59 53 -95 44 -80 95 -170 108 -190 6 -8 13 -22 17 -30
4 -8 21 -37 37 -65 l31 -50 0 -460 c0 -452 0 -461 -22 -500 -40 -74 -107 -115
-191 -115 -40 0 -62 -9 -62 -26 0 -12 73 -14 460 -14 396 0 460 2 460 15 0 9
-14 16 -37 20 -123 20 -172 45 -206 110 -22 39 -22 48 -22 520 l0 480 33 48
c17 26 32 50 32 52 0 2 31 50 68 107 73 110 138 211 187 289 75 121 152 243
167 267 10 15 21 34 25 42 5 8 26 42 47 75 21 33 48 76 61 95 113 176 146 221
202 276 35 35 70 64 77 64 6 0 17 5 24 12 17 17 121 48 160 48 26 0 33 4 30
18 -3 16 -28 17 -358 17 -309 0 -355 -2 -355 -15 0 -11 17 -17 70 -22 39 -3
87 -13 107 -22 44 -19 88 -79 88 -121 0 -50 -43 -142 -122 -264 -10 -14 -22
-35 -28 -46 -5 -11 -33 -54 -60 -95 -27 -41 -54 -84 -60 -95 -6 -11 -32 -54
-59 -95 -44 -67 -149 -233 -176 -278 -6 -9 -28 -44 -50 -77 -22 -33 -42 -64
-45 -70 -3 -5 -22 -36 -43 -67 -44 -68 -57 -67 -93 6 -14 28 -34 65 -44 81
-10 17 -31 53 -46 80 -47 85 -54 98 -85 150 -16 28 -37 64 -45 80 -8 17 -24
46 -35 65 -12 19 -32 55 -46 80 -13 25 -34 61 -45 80 -11 19 -32 57 -47 83
-14 27 -40 74 -58 105 -111 200 -131 254 -112 310 6 20 21 47 33 58 28 29 106
54 165 54 53 0 66 7 50 27 -9 10 -110 13 -539 13 -289 0 -530 -3 -533 -7z"/>
</g>
</svg>
