<?xml version="1.0" standalone="no"?>
<!DOCTYPE svg PUBLIC "-//W3C//DTD SVG 20010904//EN"
 "http://www.w3.org/TR/2001/REC-SVG-20010904/DTD/svg10.dtd">
<svg version="1.0" xmlns="http://www.w3.org/2000/svg"
 width="736.000000pt" height="736.000000pt" viewBox="0 0 736.000000 736.000000"
 preserveAspectRatio="xMidYMid meet">

<g transform="translate(0.000000,736.000000) scale(0.100000,-0.100000)"
fill="#000000" stroke="none">
<path d="M3675 5213 c-66 -34 -109 -97 -125 -183 -13 -69 0 -146 50 -306 42
-132 84 -325 96 -438 4 -37 10 -63 14 -59 4 4 14 62 24 128 19 135 48 257 100
423 38 120 47 219 26 291 -15 52 -59 110 -105 137 -49 28 -42 27 -80 7z"/>
<path d="M3165 4981 c-48 -10 -69 -74 -44 -137 5 -16 51 -70 100 -121 140
-145 157 -197 184 -569 9 -120 19 -230 22 -244 11 -39 42 261 49 470 7 199 -4
292 -47 403 -53 136 -164 219 -264 198z"/>
<path d="M4132 4958 c-123 -60 -193 -246 -191 -510 0 -147 42 -575 52 -543 4
11 13 120 22 241 17 244 27 310 57 393 28 74 46 100 144 201 63 65 84 95 89
123 8 39 0 84 -17 104 -17 21 -108 16 -156 -9z"/>
<path d="M2820 4658 c-6 -18 -14 -72 -17 -120 -13 -203 70 -375 348 -723 166
-208 234 -314 284 -440 40 -103 40 -104 14 50 -28 166 -135 427 -237 576 -27
41 -84 116 -126 168 -71 89 -106 154 -91 169 12 12 94 -41 151 -98 32 -32 76
-85 97 -117 l39 -58 -6 45 c-40 264 -89 384 -196 484 -47 43 -75 60 -126 76
-96 29 -119 27 -134 -12z"/>
<path d="M4490 4676 c-73 -20 -115 -44 -169 -99 -60 -59 -110 -157 -135 -260
-19 -75 -47 -239 -42 -244 2 -2 20 23 41 54 55 83 133 162 187 189 57 29 58
29 58 5 0 -21 -46 -90 -148 -220 -86 -110 -152 -221 -200 -338 -75 -179 -106
-280 -121 -391 -9 -71 -3 -70 24 3 39 109 117 226 320 480 166 208 264 376
299 511 20 79 20 205 1 272 -18 59 -28 62 -115 38z"/>
<path d="M2501 4331 c-22 -14 -27 -121 -7 -159 9 -17 48 -59 88 -94 40 -35
165 -155 278 -268 113 -113 251 -250 308 -304 123 -118 180 -190 228 -288 41
-83 38 -58 -7 67 -42 115 -117 224 -209 303 -229 197 -310 298 -379 475 -68
172 -109 231 -183 261 -41 18 -95 21 -117 7z"/>
<path d="M4794 4321 c-64 -29 -108 -91 -160 -222 -82 -211 -154 -309 -352
-478 -161 -138 -217 -220 -271 -395 -22 -70 -23 -107 -1 -42 31 95 110 189
430 506 175 173 352 346 395 384 84 75 105 111 105 178 0 85 -54 111 -146 69z"/>
<path d="M3682 4103 c-7 -11 -5 -30 4 -56 8 -22 14 -54 15 -71 l1 -31 10 35
c5 19 14 52 20 72 6 20 8 44 5 52 -8 21 -44 20 -55 -1z"/>
<path d="M3594 4055 c-4 -10 3 -27 18 -43 14 -15 33 -38 42 -52 l18 -25 -8 25
c-4 14 -10 43 -13 65 -5 32 -11 41 -29 43 -13 2 -25 -3 -28 -13z"/>
<path d="M3769 4061 c-1 -6 -2 -23 -3 -38 -1 -16 -6 -39 -10 -53 -6 -20 0 -15
30 20 22 24 39 51 39 60 0 17 -54 28 -56 11z"/>
<path d="M3524 4006 c-10 -25 3 -46 28 -46 13 0 34 -7 46 -16 12 -8 22 -11 22
-5 0 5 -8 16 -19 23 -10 7 -20 22 -22 33 -5 25 -47 33 -55 11z"/>
<path d="M3839 3998 c-6 -13 -21 -33 -32 -45 -20 -23 -11 -33 10 -12 6 6 26
14 45 18 27 6 33 12 33 31 0 35 -39 40 -56 8z"/>
<path d="M3630 3868 c-41 -21 -50 -32 -96 -128 -29 -58 -51 -106 -49 -108 1
-1 28 7 60 18 85 29 138 27 165 -7 29 -37 26 -53 -61 -338 -90 -296 -109 -351
-179 -520 -65 -158 -85 -236 -75 -304 9 -68 49 -143 103 -193 220 -205 571
-15 523 283 -6 33 -39 132 -75 222 -77 195 -111 298 -127 392 -14 83 -7 245
16 363 36 186 15 281 -70 322 -53 26 -80 25 -135 -2z"/>
<path d="M2351 3808 l-34 -9 5 -72 c8 -123 80 -227 221 -321 115 -76 187 -103
376 -142 112 -23 186 -43 228 -64 84 -42 170 -129 221 -227 l42 -78 -6 45
c-20 151 -96 273 -225 361 -77 52 -150 83 -309 130 -74 23 -148 48 -165 56
-39 20 -85 63 -85 80 0 35 202 -8 361 -77 107 -46 109 -48 -74 104 -224 187
-302 227 -440 225 -45 0 -97 -5 -116 -11z"/>
<path d="M4824 3802 c-75 -26 -150 -74 -272 -176 -128 -107 -211 -180 -197
-175 6 3 36 17 68 32 150 69 377 120 377 85 0 -32 -77 -86 -152 -108 -337 -98
-460 -166 -554 -307 -41 -62 -74 -156 -74 -210 0 -35 1 -35 32 28 42 83 154
196 229 233 33 16 116 39 196 56 193 39 217 46 311 93 192 94 311 242 312 384
l0 62 -37 10 c-59 17 -181 13 -239 -7z"/>
<path d="M2358 3270 c-21 -11 -45 -32 -54 -46 -16 -24 -16 -28 7 -75 27 -59
83 -113 148 -143 40 -18 64 -21 176 -21 72 0 177 4 235 9 120 10 195 -4 282
-51 55 -30 154 -130 181 -183 l18 -35 -5 53 c-11 116 -90 226 -203 284 -72 37
-102 46 -259 77 -121 23 -184 47 -277 103 -64 38 -80 43 -142 45 -55 3 -78 -1
-107 -17z"/>
<path d="M4890 3283 c-8 -3 -49 -25 -90 -49 -97 -56 -132 -68 -306 -103 -83
-18 -168 -42 -201 -58 -116 -56 -208 -180 -219 -294 l-5 -54 20 36 c32 57 114
141 172 176 80 48 165 67 269 59 259 -18 325 -19 384 -2 102 30 165 83 201
169 20 47 10 67 -49 102 -33 19 -56 25 -102 24 -32 0 -66 -3 -74 -6z"/>
<path d="M2829 2880 c-146 -25 -230 -145 -148 -214 47 -40 107 -36 190 13 86
49 120 61 185 61 68 0 136 -23 197 -66 26 -19 47 -31 47 -28 0 17 -55 94 -92
131 -92 90 -232 128 -379 103z"/>
<path d="M4404 2876 c-120 -27 -213 -96 -263 -195 l-21 -41 59 39 c77 49 135
65 216 59 53 -5 78 -14 143 -52 60 -35 89 -46 121 -46 47 0 95 21 105 45 49
129 -156 237 -360 191z"/>
</g>
</svg>
